<?xml version="1.0" encoding="iso-8859-1"?>
<!DOCTYPE svg PUBLIC "-//W3C//DTD SVG 1.1//EN" "http://www.w3.org/Graphics/SVG/1.1/DTD/svg11.dtd">
<svg 
 version="1.1" xmlns="http://www.w3.org/2000/svg" xmlns:xlink="http://www.w3.org/1999/xlink" x="0px" y="0px" width="512px"
	 height="512px" viewBox="0 0 512 512" style="enable-background:new 0 0 512 512;" xml:space="preserve"
><g id="afcae5a789ccd549f9c6e2a2f81867ea"><g></g><path style="display: inline; fill-rule: evenodd; clip-rule: evenodd;" d="M336.624,249.053c0-50.693-32.162-92.323-73.213-96.839
		c-2.515-11.221-6.406-21.927-11.492-31.93c13.468,2.185,61.907,7.259,100.464-24.207C395.185,61.149,390.005,0.5,390.005,0.5
		s-0.998,13.627-24.751,21.822c-26.049,8.993-57.323-0.271-98.914,30.508c-18.086,13.381-23.573,36.432-25.235,49.674
		c-24.895-34.711-65.578-57.369-111.457-57.369c-4.331,0-7.849,3.514-7.849,7.849s3.519,7.849,7.849,7.849
		c56.631-0.003,104.328,38.988,117.663,91.531c-40.438,5.227-71.935,46.521-71.935,96.689c0,16.297-19.847,60.271-34.882,88.751
		c0,0-14.108,26.595-14.108,55.239c0,65.422,58.029,118.457,129.61,118.457c71.589,0,129.618-53.035,129.618-118.457
		c0-31.688-14.108-55.239-14.108-55.239C353.979,312.564,336.624,265.35,336.624,249.053z M230.617,230.685
		c-7.304,22.25-4.327,43.205-13.224,40.282c-8.897-2.919-10.191-23.322-2.888-45.571c7.3-22.246,20.438-37.912,29.336-34.989
		C252.738,193.326,237.921,208.439,230.617,230.685z"></path></g></svg>